<?xml version="1.0" encoding="UTF-8" standalone="no"?>
<svg
   xmlns:dc="http://purl.org/dc/elements/1.1/"
   xmlns:cc="http://creativecommons.org/ns#"
   xmlns:rdf="http://www.w3.org/1999/02/22-rdf-syntax-ns#"
   xmlns:svg="http://www.w3.org/2000/svg"
   xmlns="http://www.w3.org/2000/svg"
   xmlns:sodipodi="http://sodipodi.sourceforge.net/DTD/sodipodi-0.dtd"
   xmlns:inkscape="http://www.inkscape.org/namespaces/inkscape"
   height="781.27643"
   version="1.1"
   viewBox="0 0 587.14494 585.95734"
   width="781.33417"
   id="svg5"
   sodipodi:docname="splash.svg"
   inkscape:version="0.92.4 (unknown)"
   inkscape:export-filename="/home/luis/Projects/CALMH/resources/icon.png"
   inkscape:export-xdpi="125.82"
   inkscape:export-ydpi="125.82">
  <metadata
     id="metadata11">
    <rdf:RDF>
      <cc:Work
         rdf:about="">
        <dc:format>image/svg+xml</dc:format>
        <dc:type
           rdf:resource="http://purl.org/dc/dcmitype/StillImage" />
        <dc:title></dc:title>
      </cc:Work>
    </rdf:RDF>
  </metadata>
  <defs
     id="defs9" />
  <sodipodi:namedview
     pagecolor="#000000"
     bordercolor="#666666"
     borderopacity="1"
     objecttolerance="10"
     gridtolerance="10"
     guidetolerance="10"
     inkscape:pageopacity="0"
     inkscape:pageshadow="2"
     inkscape:window-width="1366"
     inkscape:window-height="744"
     id="namedview7"
     showgrid="false"
     fit-margin-top="50"
     fit-margin-left="50"
     fit-margin-right="50"
     fit-margin-bottom="50"
     inkscape:pagecheckerboard="true"
     inkscape:zoom="0.9797096"
     inkscape:cx="289.14091"
     inkscape:cy="455.8252"
     inkscape:window-x="0"
     inkscape:window-y="24"
     inkscape:window-maximized="1"
     inkscape:current-layer="svg5"
     units="px" />
  <path
     style="fill:#ffffff;fill-opacity:1;stroke:#000000;stroke-width:0.75146455px;stroke-linecap:butt;stroke-linejoin:miter;stroke-opacity:1"
     d="m 47.303764,152.52158 86.674146,4.60216 c 0,0 28.38004,-77.469813 32.21517,-77.469813 3.83514,0 72.10062,36.817333 72.10062,36.817333 l 59.82818,-63.663309 49.08978,62.896289 78.23684,-34.516258 25.31192,77.469808 83.60604,-5.36919 -19.17569,110.45201 c 0,0 -54.45899,81.30496 -50.62384,81.30496 3.83513,0 59.82817,44.48762 59.82817,44.48762 0,0 -70.56656,62.89628 -67.49845,60.5952 3.06811,-2.30109 -114.28716,-3.83515 -109.68499,-5.3692 0.76702,48.32275 -52.15789,92.81037 -52.15789,92.81037 l -61.36224,-96.64551 c 0,0 -125.88018,19.83753 -179.484516,-44.48762 -7.670278,-9.20433 55.226006,-55.226 55.226006,-55.226 z"
     id="path824"
     inkscape:connector-curvature="0"
     sodipodi:nodetypes="ccscccccccscccccscc" />
  <path
     style="fill:#a7cb38;stroke:#000000;stroke-width:0.75146455px;stroke-linecap:butt;stroke-linejoin:miter;stroke-opacity:1;fill-opacity:1"
     d="m 54.237061,388.0218 67.253959,-44.47439 c 0,0 84.60981,50.98284 160.54169,48.81335 75.93189,-2.16948 177.89756,-49.89809 177.89756,-49.89809 l 83.52507,53.15232 c 0,0 -67.25395,61.83025 -118.23679,66.16921 -50.98283,4.33897 -135.59265,-62.91499 -135.59265,-62.91499 0,0 -68.3387,59.66077 -112.81308,61.83025 C 132.33842,462.86895 54.237061,388.0218 54.237061,388.0218 Z"
     id="path815"
     inkscape:connector-curvature="0" />
  <path
     style="fill:#2e83b2;stroke:#000000;stroke-width:0.75146455px;stroke-linecap:butt;stroke-linejoin:miter;stroke-opacity:1;fill-opacity:1"
     d="m 50.982837,163.48037 c 0,0 30.37276,154.03324 70.508183,180.06704 40.13542,26.03379 108.47411,60.7455 168.13488,55.32179 59.66077,-5.42369 180.06704,-26.03378 209.35506,-91.11825 29.28801,-65.08447 37.14402,-138.62033 35.3855,-154.46235 -1.75853,-15.84202 -83.60604,5.36919 -83.60604,5.36919 L 425.4485,81.187983 347.21166,115.70424 298.12188,52.80795 238.2937,116.47126 164.88067,81.040042 133.97791,157.12374 Z"
     id="path819"
     inkscape:connector-curvature="0" />
  <path
     style="fill:#a7cb38;stroke:#000000;stroke-width:0.75146455px;stroke-linecap:butt;stroke-linejoin:miter;stroke-opacity:1;fill-opacity:1"
     d="m 289.6259,398.8692 c 0,0 71.82613,58.39072 71.82613,58.39072 l -66.39826,80.30964 -61.36224,-96.64551 z"
     id="path821"
     inkscape:connector-curvature="0" />
  <g
     id="surface1"
     transform="translate(37.573129,36.478669)"
     style="fill:#000000;fill-opacity:1;stroke:none;stroke-opacity:1">
    <path
       d="m 451.52344,301.98828 c 65.88281,-70.78516 60.53515,-182.73437 60.26953,-187.5664 -0.42188,-7.63282 -6.51953,-13.72657 -14.15235,-14.14844 -2.28515,-0.12891 -34.64843,-1.707034 -75.14453,6.53515 -7.98828,-41.023434 -21.98437,-70.49609 -22.64843,-71.882809 -3.3086,-6.890625 -11.26954,-10.1875 -18.48829,-7.65625 C 379.91016,27.777344 349.19141,38.714844 314.55078,62.0625 291.82812,27.753906 267.90234,6.023438 266.00391,4.324219 c -5.69141,-5.101563 -14.3125,-5.101563 -20.00782,0 -1.89843,1.699219 -25.82422,23.429687 -48.54687,57.742187 -34.64063,-23.347656 -65.36328,-34.289062 -66.8086,-34.796875 -7.21484,-2.527343 -15.17968,0.765625 -18.48828,7.65625 C 111.48828,36.3125 97.488281,65.785156 89.503906,106.8125 49.007812,98.570312 16.640625,100.14844 14.355469,100.27344 6.722656,100.69531 0.628906,106.78906 0.207031,114.42578 -0.0625,119.25391 -5.40625,231.20312 60.476562,301.98828 26.910156,320.57031 4.933594,344.84766 3.847656,346.05859 c -5.097656,5.69532 -5.097656,14.31641 0,20.01172 2.386719,2.66406 59.246094,65.23828 131.660154,65.23828 18.81641,0 36.57422,-4.23047 52.60938,-10.53125 16.66797,50.49219 56.02343,86.1875 57.875,87.85157 2.84765,2.54687 6.42968,3.82421 10.00781,3.82421 3.57812,0 7.15625,-1.27734 10.00391,-3.82421 1.85546,-1.66016 41.20312,-37.35938 57.875,-87.84766 16.03515,6.29687 33.79296,10.52734 52.60937,10.52734 72.41406,0 129.27734,-62.57422 131.66406,-65.23828 5.09766,-5.69531 5.09766,-14.3164 0,-20.01172 -1.08984,-1.21484 -23.07031,-25.49218 -56.6289,-44.07031 z m -25.51953,-16.73047 c -39.01563,39.01563 -97.12891,50.97266 -134.08594,54.51953 26.66406,-31.83984 64.22265,-88.34375 64.22265,-153.99609 0,-7.34766 -0.48437,-14.57422 -1.35546,-21.67188 45.52343,-28.1289 101.40625,-33.17187 127.08593,-33.89453 -0.85156,31.26172 -8.07031,107.2461 -55.86718,155.04297 z M 378.23828,60.953125 c 4.52344,11.824219 10.88672,30.804687 15.14063,53.289065 -14.94141,4.64453 -30.25,10.78515 -45.01563,18.89062 -4.70312,-16.18359 -11.1875,-31.35937 -18.47656,-45.218748 18.89453,-12.878906 36.80078,-21.804687 48.35156,-26.960937 z M 256.01562,36.648438 c 18.71094,19.761718 57.9375,66.863282 67.82032,123.281252 0.004,0.008 0.004,0.0156 0.008,0.0273 1.47266,8.41797 2.29687,17.04688 2.29687,25.82422 0,67.35937 -48.63281,126.33203 -70.14062,149.11328 -21.50781,-22.78125 -70.14453,-81.75391 -70.14453,-149.11328 0,-67.38281 48.67187,-126.375 70.16015,-149.132812 z M 133.75781,60.953125 c 11.55078,5.160156 29.46094,14.085937 48.35156,26.964844 -7.28906,13.855471 -13.77343,29.031251 -18.47656,45.214841 -14.76562,-8.10547 -30.07422,-14.24609 -45.01562,-18.89062 4.2539,-22.484378 10.62109,-41.468752 15.14062,-53.289065 z m 23.45313,103.156245 c -0.8711,7.09766 -1.35157,14.32422 -1.35157,21.67188 0,65.69141 37.59766,122.21875 64.26172,154.05078 -36.90625,-3.5 -94.97656,-15.42187 -134.132809,-54.57422 -47.648437,-47.64844 -54.941406,-123.77734 -55.839843,-155.0664 25.660156,0.69531 81.425782,5.69531 127.062502,33.91796 z M 36.433594,356.04297 C 46.539062,346.88672 63.5,333.32031 84.417969,323.39844 c 43.652341,32.51953 97.574221,43.13281 133.410151,46.4375 -7.42578,5.5039 -16.1289,11.21484 -25.78125,16.23828 -0.53906,0.23437 -1.05859,0.50781 -1.55859,0.80078 -16.24609,8.23828 -35.07422,14.4375 -54.98047,14.4375 -43.109372,0 -81.453122,-29.35156 -99.074216,-45.26953 z m 219.542966,120 c -12.03906,-13.28125 -31.70703,-38.375 -40.61328,-68.61719 17.59375,-10.34375 31.62109,-21.94922 40.63281,-30.24219 9.01172,8.29297 23.03907,19.89844 40.62891,30.23828 -8.89453,30.12891 -28.60938,55.30079 -40.64844,68.6211 z M 376.48828,401.3125 c -32.33594,0 -61.98437,-16.51172 -82.22656,-31.48828 35.83594,-3.3125 89.70312,-13.9375 133.3125,-46.42188 20.83984,9.89453 37.85547,23.50782 47.99609,32.67578 C 458,372.00781 419.78906,401.3125 376.48828,401.3125 Z m 0,0"
       style="fill:#000000;fill-opacity:1;fill-rule:nonzero;stroke:none;stroke-opacity:1"
       id="path2"
       inkscape:connector-curvature="0" />
  </g>
</svg>
